<svg width="468" height="658" viewBox="0 0 468 658" fill="none" xmlns="http://www.w3.org/2000/svg">
<path id="light" d="M416.104 625C434.5 625 431 648 230 648C-1.14706 648 -10.4998 625 40.0003 625H395.5Z" fill="#FFFFAA"
>
    <animate
        begin="click" 
        repeatCount="indefinite"
        dur="800ms"
        attributeName="d"
        values="
            M392 627.5C404.5 636 417 636 217.5 636C37.5 636 10 642.5 37.5 627.5L37.5 621.5L392 619V627.5Z;
            M392 627.5C381 637.5 414.5 627.5 215 627.5C35 627.5 37.5 642 37.5 627.5L37.5 621.5L392 619V627.5Z;
            M392 627.5C404.5 636 417 636 217.5 636C37.5 636 10 642.5 37.5 627.5L37.5 621.5L392 619V627.5Z
        "
 
    />
</path>
<path id="door" d="M407 29H36V625H407V29Z" fill="#B36535"/>
<path id="external" d="M36.3074 626H3.00631V11.0117C3.00631 11.0117 2.75751 7.2178 5.38489 5.00691C8.01227 2.79601 12.5209 3.0053 12.5209 3.0053H415.107C415.107 3.0053 419.829 3.02977 422.837 6.00769C425.394 8.53892 427 11.5121 427 11.5121V626H393.104V32.0283H36.3074V626Z" fill="#B36535" stroke="black" stroke-width="5"/>
<ellipse id="handle-shadow" cx="355" cy="421" rx="15" ry="22" fill="black" fill-opacity="0.25"/>
<path id="handle"  fill="#ECDE00" stroke="black"
            d="M368.5 417C368.5 422.981 366.736 428.375 363.909 432.262C361.082 436.15 357.219 438.5 353 438.5C348.781 438.5 344.918 436.15 342.091 432.262C339.264 428.375 337.5 422.981 337.5 417C337.5 411.019 339.264 405.625 342.091 401.738C344.918 397.85 348.781 395.5 353 395.5C357.219 395.5 361.082 397.85 363.909 401.738C366.736 405.625 368.5 411.019 368.5 417Z"      
> 
    <animateTransform
        repeatCount="1"
        dur="1500ms"
        attributeName="transform"
        type="rotate"
        fill="freeze"
        begin="click"
        values = "
        0 352 417;
        40 352 417;
        0 352 417;
        -5 352 417;
        0 352 417
        "
    />
    
</path>
<path d="M65.5 379.5V68.5H352.5V379.5H65.5Z" stroke="#F4C2A3" stroke-width="3"/>
<path d="M65 608V454H352V608H65Z" stroke="#F4C2A3" stroke-width="3"/>
</svg>
