<svg width="493" height="439" viewBox="0 0 493 439" fill="none" xmlns="http://www.w3.org/2000/svg">
<path d="M85.5 34.5C104 29 117.499 1.99999 135.499 1.99997C153.499 1.99994 164.499 17.5 172.499 17.5C181.499 11.5 196.499 1.99997 205.499 1.99997C218.499 1.99997 224.666 14 233.499 20C246.499 17.1666 255.893 12.2291 262.499 14.5C278.499 20 293.053 47.5608 291.499 53C288.499 63.5 293.666 81 294.999 93.5C304 133 322.499 205 322.499 209C322.499 216.906 326.499 221.667 327.499 224.5C327.499 224.5 271.292 231.871 238.999 247C209.173 260.973 161.999 297 161.999 297C129.833 289.167 57.4399 226.973 44.4992 209C35.4992 196.5 1.25219 140.5 2.5 132.5C4.48381 119.781 9.79917 107.9 12.9992 101.5C16.9992 93.5 13.118 60.0713 21.4992 63.5C23.168 64.1827 24.5225 65.0495 25.6215 66C28.3874 68.392 29.5359 71.3141 30.0082 73.1665C27.1019 54.9286 33.9181 39.4092 54.5 32C67.6485 27.2667 85.5 34.5 85.5 34.5Z" fill="#F4C2A3">
    <animate
        attributeName="d"
        dur="3s"
        repeatCount="1"
        fill="freeze"
        from="
            M85.5 34.5C104 29 117.499 1.99999 135.499 1.99997C153.499 1.99994 164.499 17.5 172.499 17.5C181.499 11.5 196.499 1.99997 205.499 1.99997C218.499 1.99997 224.666 14 233.499 20C246.499 17.1666 255.893 12.2291 262.499 14.5C278.499 20 293.053 47.5608 291.499 53C288.499 63.5 293.666 81 294.999 93.5C304 133 322.499 205 322.499 209C322.499 216.906 326.499 221.667 327.499 224.5C327.499 224.5 271.292 231.871 238.999 247C209.173 260.973 161.999 297 161.999 297C129.833 289.167 57.4399 226.973 44.4992 209C35.4992 196.5 1.25219 140.5 2.5 132.5C4.48381 119.781 9.79917 107.9 12.9992 101.5C16.9992 93.5 13.118 60.0713 21.4992 63.5C23.168 64.1827 24.5225 65.0495 25.6215 66C28.3874 68.392 29.5359 71.3141 30.0082 73.1665C27.1019 54.9286 33.9181 39.4092 54.5 32C67.6485 27.2667 85.5 34.5 85.5 34.5Z
        "
        to="
            M82.025 33.6441C100.523 28.7966 114.021 3.00002 132.019 3C150.017 2.99998 161.016 18.661 169.016 18.661C178.015 13.3729 193.013 3 202.012 3C215.011 3 221.177 15.5763 230.01 20.8644C243.008 18.3672 252.401 14.0155 259.007 16.017C275.005 20.8644 285.004 44.9097 285.004 49.9491C285.004 57 289.167 81.4831 290.5 92.5C303 128.5 319.001 183.915 319.001 187.441C319.001 194.408 323 198.604 324 201.102C324 201.102 267.799 207.599 235.509 220.932C205.686 233.247 158.517 265 158.517 265C126.353 258.096 55.9672 201.341 43.0277 185.5C34.0286 174.483 1.7856 139.068 3.03328 132.017C5.0169 120.807 6.33172 106.336 9.53141 100.695C13.531 93.6441 9.65021 61.3849 18.0306 64.4068C19.6993 65.0085 21.0536 63.5691 22.1525 64.4068C26.1312 67.4398 26.7628 69.0089 26.8493 69.292C23.2084 55.5297 29.7862 38.181 51.0281 31.4407C64.1753 27.269 82.025 33.6441 82.025 33.6441Z
        "
        />
</path>
<path d="M86.5 34.5L97 52.5L86 41L72 31.5L86.5 34.5Z" fill="#D5936B">
    <animate
        attributeName="d"
        dur="3s"
        repeatCount="1"
        fill="freeze"
        from="
            M86.5 34.5L97 52.5L86 41L72 31.5L86.5 34.5Z
        "
        to="
            M81.0332 34.5L91.5332 52.5L80.5332 41L66.5332 31.5L81.0332 34.5Z
        "  
    />
</path>
<path d="M177.5 60.5C199.5 92 216.5 132.5 218.5 149C218.715 150.776 197.058 93 177.5 60.5Z" fill="#D5936B">
    <animate
        attributeName="d"
        dur="3s"
        repeatCount="1"
        fill="freeze"
        from="
            M177.5 60.5C199.5 92 216.5 132.5 218.5 149C218.715 150.776 197.058 93 177.5 60.5Z
        "
        to="
            M140.033 62C167.033 93 199 148.379 199 165C199 168.5 159.591 94.5 140.033 62Z
        "  
    />
</path>
<path d="M251.5 98.5C252.5 104.5 256.167 116.833 265 138.5L242.5 50.5C241.833 55.5 250.958 95.2464 251.5 98.5Z" fill="#D5936B">
    <animate
        attributeName="d"
        dur="3s"
        repeatCount="1"
        fill="freeze"
        from="
            M251.5 98.5C252.5 104.5 256.167 116.833 265 138.5L242.5 50.5C241.833 55.5 250.958 95.2464 251.5 98.5Z
        "
        to="
            M234.533 116C235.533 122 241.5 133.5 254.533 152.5L221.5 62C220.833 67 233.991 112.746 234.533 116Z
        "  
    />
</path>
<path d="M319.5 205L296.5 170L322 216L319.5 205Z" fill="#D5936B">
    <animate
        attributeName="d"
        dur="3s"
        repeatCount="1"
        fill="freeze"
        from="
            M319.5 205L296.5 170L322 216L319.5 205Z
        "
        to="
            M316.033 173L293.033 138L318.533 184L316.033 173Z
        "  
    />
</path>
<path d="M295.5 230L306.5 227.5C306.5 227.5 298.593 225.658 295.5 223.5C291.974 221.039 287.5 216 287.5 216C287.5 216 288.664 220.828 290 223.5C291.605 226.711 295.5 230 295.5 230Z" fill="#D5936B">
    <animate
        attributeName="d"
        dur="3s"
        repeatCount="1"
        fill="freeze"
        from="
            M295.5 230L306.5 227.5C306.5 227.5 298.593 225.658 295.5 223.5C291.974 221.039 287.5 216 287.5 216C287.5 216 288.664 220.828 290 223.5C291.605 226.711 295.5 230 295.5 230Z
        "
        to="
            M292.033 198L303.033 195.5C303.033 195.5 295.126 193.658 292.033 191.5C288.507 189.039 284.033 184 284.033 184C284.033 184 285.197 188.828 286.533 191.5C288.139 194.711 292.033 198 292.033 198Z
        "  
    />
</path>
<path d="M170.5 290C168.9 290 143.5 272 127 249.5C127 249.5 136.326 264.967 143.5 274C150.632 282.98 163.5 295.5 163.5 295.5C165.167 293.833 172.1 290 170.5 290Z" fill="#D5936B">
    <animate
        attributeName="d"
        dur="3s"
        repeatCount="1"
        fill="freeze"
        from="
            M170.5 290C168.9 290 143.5 272 127 249.5C127 249.5 136.326 264.967 143.5 274C150.632 282.98 163.5 295.5 163.5 295.5C165.167 293.833 172.1 290 170.5 290Z
        "
        to="
            M167.033 258C165.433 258 140.033 240 123.533 217.5C123.533 217.5 132.859 232.967 140.033 242C147.165 250.98 160.033 263.5 160.033 263.5C161.7 261.833 168.633 258 167.033 258Z
        "  
    />
</path>
<path d="M47 124.5L49.5 129C49.5 129 44.0359 128.056 40.5 128C36.3814 127.935 27 131 27 131C27 131 35.0939 126.889 38.5 126C41.7616 125.149 47 124.5 47 124.5Z" fill="#D5936B">
    <animate
        attributeName="d"
        dur="3s"
        repeatCount="1"
        fill="freeze"
        from="
            M47 124.5L49.5 129C49.5 129 44.0359 128.056 40.5 128C36.3814 127.935 27 131 27 131C27 131 35.0939 126.889 38.5 126C41.7616 125.149 47 124.5 47 124.5Z
        "
        to="
            M34.0332 100.5H23.5332C23.5332 100.5 28.4614 99.7226 30.0332 98.5C31.1447 97.6356 32.0332 95.5 32.0332 95.5L34.0332 100.5Z
        "  
    />
</path>
<path d="M40.5 111.5H30C30 111.5 34.9282 110.723 36.5 109.5C37.6115 108.636 38.5 106.5 38.5 106.5L40.5 111.5Z" fill="#D5936B"/>
<path d="M14.5 136C12.9 136 6 137 3.5 136L6 141C8.33333 139.833 16.1 136 14.5 136Z" fill="#D5936B"/>
<path d="M165.5 20C170.42 24.4485 177.5 31.5 177.5 31.5C177.5 31.5 175.5 26.7203 175.5 23.5C175.5 20 177.5 16.5 177.5 16.5L172 18L147.5 6C147.5 6 158.95 14.0781 165.5 20Z" fill="#D5936B"/>
<path d="M238 30.5L236 21L222 10L210.5 3.5L238 30.5Z" fill="#D5936B"/>
<path d="M36 46C33.3254 51.9783 39.5 61.5 39.5 61.5C39.5 61.5 39.2663 50.2721 42 45C44.7337 39.7279 51 34.5 51 34.5L43 38C43 38 37.5234 42.5948 36 46Z" fill="#D5936B"/>
<path d="M238.999 246.5C271.292 231.371 327.499 224 327.499 224H336.5C340.113 224 343.718 225.245 346.5 228.5C396.5 287 472 437.5 472 437.5H214L149 317.5C149 317.5 151.417 310.16 154 306C156.559 301.88 161.999 296.5 161.999 296.5C161.999 296.5 209.173 260.473 238.999 246.5Z" fill="white"/>
<path d="M185 438L151.5 356.5C151.5 356.5 208.5 295.5 251.5 274C318.75 240.375 379.5 243 379.5 243L491.5 438H185Z" fill="#525252"/>
<path d="M327.499 224.5C326.499 221.667 321.5 219.5 321.5 210.5C321.5 201.5 294.999 93.5 294.999 93.5C294.999 93.5 290.5 66 290.5 53.5C290.5 47.8431 278.499 20 262.499 14.5C255.893 12.2291 246.499 17.1666 233.499 20C224.666 14 218.499 1.99997 205.499 1.99997C196.499 1.99997 181.499 11.5 172.499 17.5C164.499 17.5 153.499 1.99994 135.499 1.99997C117.499 1.99999 104 29 85.5 34.5C85.5 34.5 67.6486 27.2667 54.5 32C33.2318 39.6563 26.6626 55.9727 30.3313 75M327.499 224.5C327.499 224.5 271.292 231.871 238.999 247C209.173 260.973 161.999 297 161.999 297M327.499 224.5C327.499 224.5 338.5 224.5 343 224.5L358.5 243.5M161.999 297C129.833 289.167 57.4399 226.973 44.4992 209C35.4992 196.5 1.25223 140.5 2.50003 132.5C4.48385 119.781 9.7992 107.9 12.9992 101.5M161.999 297C161.999 297 156.559 301.88 154 306C147.48 316.5 149 318 149 318L164.5 344.5M12.9992 101.5C16.9992 93.5 13.118 60.0713 21.4992 63.5C23.1681 64.1827 24.5225 65.0495 25.6215 66M12.9992 101.5C16 101.5 19.4992 100.8 21.4992 100C23.4992 99.2 26.2477 76 25.6215 66M62.9992 184.5C58.0058 167.757 52.5825 132 48.4992 125C37.9992 107 33.9072 90.4703 30.3313 75M30.3313 75C30.3313 75 30.0421 69.823 25.6215 66M491.5 438L379 243.5H358.5M185 438L154 357L164.5 344.5M164.5 344.5C164.5 344.5 211.058 295.508 248.5 275.5C287.958 254.415 358.5 243.5 358.5 243.5" stroke="black" stroke-width="3" stroke-linejoin="round">
    <animate
        attributeName="d"
        dur="3s"
        repeatCount="1"
        fill="freeze"
        from="
            M327.499 224.5C326.499 221.667 321.5 219.5 321.5 210.5C321.5 201.5 294.999 93.5 294.999 93.5C294.999 93.5 290.5 66 290.5 53.5C290.5 47.8431 278.499 20 262.499 14.5C255.893 12.2291 246.499 17.1666 233.499 20C224.666 14 218.499 1.99997 205.499 1.99997C196.499 1.99997 181.499 11.5 172.499 17.5C164.499 17.5 153.499 1.99994 135.499 1.99997C117.499 1.99999 104 29 85.5 34.5C85.5 34.5 67.6486 27.2667 54.5 32C33.2318 39.6563 26.6626 55.9727 30.3313 75M327.499 224.5C327.499 224.5 271.292 231.871 238.999 247C209.173 260.973 161.999 297 161.999 297M327.499 224.5C327.499 224.5 338.5 224.5 343 224.5L358.5 243.5M161.999 297C129.833 289.167 57.4399 226.973 44.4992 209C35.4992 196.5 1.25223 140.5 2.50003 132.5C4.48385 119.781 9.7992 107.9 12.9992 101.5M161.999 297C161.999 297 156.559 301.88 154 306C147.48 316.5 149 318 149 318L164.5 344.5M12.9992 101.5C16.9992 93.5 13.118 60.0713 21.4992 63.5C23.1681 64.1827 24.5225 65.0495 25.6215 66M12.9992 101.5C16 101.5 19.4992 100.8 21.4992 100C23.4992 99.2 26.2477 76 25.6215 66M62.9992 184.5C58.0058 167.757 52.5825 132 48.4992 125C37.9992 107 33.9072 90.4703 30.3313 75M30.3313 75C30.3313 75 30.0421 69.823 25.6215 66M491.5 438L379 243.5H358.5M185 438L154 357L164.5 344.5M164.5 344.5C164.5 344.5 211.058 295.508 248.5 275.5C287.958 254.415 358.5 243.5 358.5 243.5
        "
        to="
            M324.032 192.5C323.032 189.667 318.033 187.5 318.033 178.5C318.033 169.5 291.532 93.5 291.532 93.5C291.532 93.5 287.033 66.0001 287.033 53.5C287.033 47.8432 275.032 20 259.032 14.5C252.426 12.2291 243.033 17.1667 230.033 20C221.199 14 215.033 2 202.033 2C193.033 2 178.033 11.5 169.033 17.5C161.033 17.5 150.033 1.99997 132.033 2C114.032 2.00003 100.533 29 82.0333 34.5C82.0333 34.5 64.1819 27.2667 51.0333 32C29.7651 39.6564 23.1959 55.9727 26.8646 75M324.032 192.5C324.032 192.5 267.825 199.871 235.533 215C205.706 228.973 158.533 265 158.533 265M324.032 192.5C324.032 192.5 335.033 192.5 339.533 192.5L355.033 211.5M158.533 265C126.366 257.167 52.9732 200.973 40.0325 183C31.0325 170.5 0.785542 140.5 2.03335 132.5C4.01716 119.781 6.33251 107.9 9.53251 101.5M158.533 265C158.533 265 153.092 269.88 150.533 274C144.013 284.5 145.533 286 145.533 286L161.033 312.5M9.53251 101.5C13.5325 93.5 9.65133 60.0714 18.0325 63.5C19.7014 64.1827 21.0558 65.0495 22.1549 66M9.53251 101.5C12.5333 101.5 16.0325 100.8 18.0325 100C20.0325 99.2 22.781 76 22.1549 66M59.5325 152.5C54.5391 135.757 49.1158 132 45.0325 125C34.5325 107 30.4405 90.4704 26.8646 75M26.8646 75C26.8646 75 26.5754 69.823 22.1549 66M488.033 406L375.533 211.5H355.033M181.533 406L150.533 325L161.033 312.5M161.033 312.5C161.033 312.5 207.591 263.508 245.033 243.5C284.492 222.415 355.033 211.5 355.033 211.5
        "  
    />
</path>
</svg>

<svg width="493" height="439" viewBox="0 0 490 407" fill="none" xmlns="http://www.w3.org/2000/svg">
<path d="M82.025 33.6441C100.523 28.7966 114.021 3.00002 132.019 3C150.017 2.99998 161.016 18.661 169.016 18.661C178.015 13.3729 193.013 3 202.012 3C215.011 3 221.177 15.5763 230.01 20.8644C243.008 18.3672 252.401 14.0155 259.007 16.017C275.005 20.8644 285.004 44.9097 285.004 49.9491C285.004 57 289.167 81.4831 290.5 92.5C303 128.5 319.001 183.915 319.001 187.441C319.001 194.408 323 198.604 324 201.102C324 201.102 267.799 207.599 235.509 220.932C205.686 233.247 158.517 265 158.517 265C126.353 258.096 55.9672 201.341 43.0277 185.5C34.0286 174.483 1.7856 139.068 3.03328 132.017C5.0169 120.807 6.33172 106.336 9.53141 100.695C13.531 93.6441 9.65021 61.3849 18.0306 64.4068C19.6993 65.0085 21.0536 63.5691 22.1525 64.4068C26.1312 67.4398 26.7628 69.0089 26.8493 69.292C23.2084 55.5297 29.7862 38.181 51.0281 31.4407C64.1753 27.269 82.025 33.6441 82.025 33.6441Z" fill="#F4C2A3"/>
<path d="M81.0332 34.5L91.5332 52.5L80.5332 41L66.5332 31.5L81.0332 34.5Z" fill="#D5936B"/>
<path d="M140.033 62C167.033 93 199 148.379 199 165C199 168.5 159.591 94.5 140.033 62Z" fill="#D5936B"/>
<path d="M234.533 116C235.533 122 241.5 133.5 254.533 152.5L221.5 62C220.833 67 233.991 112.746 234.533 116Z" fill="#D5936B"/>
<path d="M316.033 173L293.033 138L318.533 184L316.033 173Z" fill="#D5936B"/>
<path d="M292.033 198L303.033 195.5C303.033 195.5 295.126 193.658 292.033 191.5C288.507 189.039 284.033 184 284.033 184C284.033 184 285.197 188.828 286.533 191.5C288.139 194.711 292.033 198 292.033 198Z" fill="#D5936B"/>
<path d="M167.033 258C165.433 258 140.033 240 123.533 217.5C123.533 217.5 132.859 232.967 140.033 242C147.165 250.98 160.033 263.5 160.033 263.5C161.7 261.833 168.633 258 167.033 258Z" fill="#D5936B"/>
<path d="M44.5332 121.5L47.0332 126C47.0332 126 41.5691 125.056 38.0332 125C33.9146 124.935 24.5332 128 24.5332 128C24.5332 128 32.6271 123.889 36.0332 123C39.2948 122.149 44.5332 121.5 44.5332 121.5Z" fill="#D5936B"/>
<path d="M34.0332 100.5H23.5332C23.5332 100.5 28.4614 99.7226 30.0332 98.5C31.1447 97.6356 32.0332 95.5 32.0332 95.5L34.0332 100.5Z" fill="#D5936B"/>
<path d="M12.0332 133C10.4332 133 3.5332 134 1.0332 133L3.5332 138C5.86654 136.833 13.6332 133 12.0332 133Z" fill="#D5936B"/>
<path d="M162.033 20C166.954 24.4486 174.033 31.5 174.033 31.5C174.033 31.5 172.033 26.7204 172.033 23.5C172.033 20 174.033 16.5 174.033 16.5L168.533 18L144.033 6.00003C144.033 6.00003 155.483 14.0781 162.033 20Z" fill="#D5936B"/>
<path d="M234.533 30.5L232.533 21L218.533 10L207.033 3.50003L234.533 30.5Z" fill="#D5936B"/>
<path d="M30.5332 46C27.8586 51.9783 34.0332 61.5 34.0332 61.5C34.0332 61.5 33.7995 50.2721 36.5332 45C39.2669 39.728 45.5332 34.5 45.5332 34.5L37.5332 38C37.5332 38 32.0566 42.5948 30.5332 46Z" fill="#D5936B"/>
<path d="M235.532 214.5C267.825 199.371 324.032 192 324.032 192H333.033C336.646 192 340.251 193.245 343.033 196.5C393.033 255 468.533 405.5 468.533 405.5H210.533L145.533 285.5C145.533 285.5 147.95 278.16 150.533 274C153.092 269.88 158.532 264.5 158.532 264.5C158.532 264.5 205.706 228.473 235.532 214.5Z" fill="white"/>
<path d="M181.533 406L148.033 324.5C148.033 324.5 205.033 263.5 248.033 242C315.283 208.375 376.033 211 376.033 211L488.033 406H181.533Z" fill="#525252"/>
<path d="M324.032 192.5C323.032 189.667 318.033 187.5 318.033 178.5C318.033 169.5 291.532 93.5 291.532 93.5C291.532 93.5 287.033 66.0001 287.033 53.5C287.033 47.8432 275.032 20 259.032 14.5C252.426 12.2291 243.033 17.1667 230.033 20C221.199 14 215.033 2 202.033 2C193.033 2 178.033 11.5 169.033 17.5C161.033 17.5 150.033 1.99997 132.033 2C114.032 2.00003 100.533 29 82.0333 34.5C82.0333 34.5 64.1819 27.2667 51.0333 32C29.7651 39.6564 23.1959 55.9727 26.8646 75M324.032 192.5C324.032 192.5 267.825 199.871 235.533 215C205.706 228.973 158.533 265 158.533 265M324.032 192.5C324.032 192.5 335.033 192.5 339.533 192.5L355.033 211.5M158.533 265C126.366 257.167 52.9732 200.973 40.0325 183C31.0325 170.5 0.785542 140.5 2.03335 132.5C4.01716 119.781 6.33251 107.9 9.53251 101.5M158.533 265C158.533 265 153.092 269.88 150.533 274C144.013 284.5 145.533 286 145.533 286L161.033 312.5M9.53251 101.5C13.5325 93.5 9.65133 60.0714 18.0325 63.5C19.7014 64.1827 21.0558 65.0495 22.1549 66M9.53251 101.5C12.5333 101.5 16.0325 100.8 18.0325 100C20.0325 99.2 22.781 76 22.1549 66M59.5325 152.5C54.5391 135.757 49.1158 132 45.0325 125C34.5325 107 30.4405 90.4704 26.8646 75M26.8646 75C26.8646 75 26.5754 69.823 22.1549 66M488.033 406L375.533 211.5H355.033M181.533 406L150.533 325L161.033 312.5M161.033 312.5C161.033 312.5 207.591 263.508 245.033 243.5C284.492 222.415 355.033 211.5 355.033 211.5" stroke="black" stroke-width="3" stroke-linejoin="round"/>
</svg>

